PathFileType	4	(X/Y/Z)	/Users/gattia/Dropbox/phd_data/bike_study/processing_scripts/../mocap_collections/p017/static_002_dig-bike_study_lower_sept.17.2019_static_func_knee_and_ankle/marker_data.trc
DataRate	CameraRate	NumFrames	NumMarkers	Units	OrigDataRate	OrigDataStartFrame	OrigNumFrames
112.5	112.5	4	107	mm	112.5	255	339
Frame#	Time	Head_Front			Head_R			Head_L			Head_back			Head_top			Arm_R_1			Arm_R_2			Arm_R_3			Arm_R_4			Elbow_R_Lat			Elbow_R_Med			Forearm_R_1			Forearm_R_2			Forearm_R_3			Forearm_R_4			Rad_styl_R			Ul_styl_R			Dig_R_1			Dig_R_3			Dig_R_5			Arm_L_1			Arm_L_2			Arm_L_3			Arm_L_4			Elbow_L_Lat			Elbow_L_Med			Forearm_L_1			Forearm_L_2			Forearm_L_3			Forearm_L_4			Rad_styl_L			Ul_styl_L			Dig_L_1			Dig_L_3			Dig_L_5			xiphoid			sternal_notch			Acr_R			Acr_L			C7			T8			ASIS_R			ASIS_L			PSIS_R			PSIS_L			GT_R			Thigh_R_1			Thigh_R_2			Thigh_R_3			Thigh_R_4			Knee_R_L_Cond			Knee_R_M_Cond			GT_L			Thigh_L_1			Thigh_L_2			Thigh_L_3			Thigh_L_4			Knee_L_L_Cond			Knee_L_M_Cond			Tib_Tib_R			Shank_R_1			Shank_R_2			Shank_R_3			Shank_R_4			Ankle_R_L_Mal			Ankle_R_M_Mal			Tib_Tub_L			Shank_L_1			Shank_L_2			Shank_L_3			Shank_L_4			Ankle_L_L_Mal			Ankle_L_M_Mal			Foot_R_MH_1_Top			Foot_R_MH_5_Top			Foot_R_Calc			Foot_R_Center			Foot_L_MH_1_Top			Foot_L_MH_5_Top			Foot_L_Calc			Foot_L_Center			right_hjc			left_hjc			mid_hjc			mid_pelvis			mid_asis			mid_psis			right_kjc			left_kjc			right_ajc			left_ajc			right_met_1_floor			left_met_1_floor			right_met_5_floor			left_met_5_floor			right_calc_floor			left_calc_floor			right_mid_met_floor			left_mid_met_floor			right_ajc_floor			left_ajc_floor			right_sjc			left_sjc			right_ejc			left_ejc			right_wjc			left_wjc			
		X1	Y1	Z1	X2	Y2	Z2	X3	Y3	Z3	X4	Y4	Z4	X5	Y5	Z5	X6	Y6	Z6	X7	Y7	Z7	X8	Y8	Z8	X9	Y9	Z9	X10	Y10	Z10	X11	Y11	Z11	X12	Y12	Z12	X13	Y13	Z13	X14	Y14	Z14	X15	Y15	Z15	X16	Y16	Z16	X17	Y17	Z17	X18	Y18	Z18	X19	Y19	Z19	X20	Y20	Z20	X21	Y21	Z21	X22	Y22	Z22	X23	Y23	Z23	X24	Y24	Z24	X25	Y25	Z25	X26	Y26	Z26	X27	Y27	Z27	X28	Y28	Z28	X29	Y29	Z29	X30	Y30	Z30	X31	Y31	Z31	X32	Y32	Z32	X33	Y33	Z33	X34	Y34	Z34	X35	Y35	Z35	X36	Y36	Z36	X37	Y37	Z37	X38	Y38	Z38	X39	Y39	Z39	X40	Y40	Z40	X41	Y41	Z41	X42	Y42	Z42	X43	Y43	Z43	X44	Y44	Z44	X45	Y45	Z45	X46	Y46	Z46	X47	Y47	Z47	X48	Y48	Z48	X49	Y49	Z49	X50	Y50	Z50	X51	Y51	Z51	X52	Y52	Z52	X53	Y53	Z53	X54	Y54	Z54	X55	Y55	Z55	X56	Y56	Z56	X57	Y57	Z57	X58	Y58	Z58	X59	Y59	Z59	X60	Y60	Z60	X61	Y61	Z61	X62	Y62	Z62	X63	Y63	Z63	X64	Y64	Z64	X65	Y65	Z65	X66	Y66	Z66	X67	Y67	Z67	X68	Y68	Z68	X69	Y69	Z69	X70	Y70	Z70	X71	Y71	Z71	X72	Y72	Z72	X73	Y73	Z73	X74	Y74	Z74	X75	Y75	Z75	X76	Y76	Z76	X77	Y77	Z77	X78	Y78	Z78	X79	Y79	Z79	X80	Y80	Z80	X81	Y81	Z81	X82	Y82	Z82	X83	Y83	Z83	X84	Y84	Z84	X85	Y85	Z85	X86	Y86	Z86	X87	Y87	Z87	X88	Y88	Z88	X89	Y89	Z89	X90	Y90	Z90	X91	Y91	Z91	X92	Y92	Z92	X93	Y93	Z93	X94	Y94	Z94	X95	Y95	Z95	X96	Y96	Z96	X97	Y97	Z97	X98	Y98	Z98	X99	Y99	Z99	X100	Y100	Z100	X101	Y101	Z101	X102	Y102	Z102	X103	Y103	Z103	X104	Y104	Z104	X105	Y105	Z105	X106	Y106	Z106	X107	Y107	Z107	

255	  2.257778	347.119057	1787.105096	320.466603	157.794131	1757.774239	373.814949	242.185761	1755.444277	180.533355	106.605521	1695.191229	266.575394	220.426586	1857.815083	286.055302	108.117396	1329.923613	513.914484	114.959965	1352.720839	548.594447	113.803160	1329.457409	564.233278	106.818934	1305.740847	529.346182	105.471981	1239.532305	597.737512	178.919616	1212.864988	564.031318	106.241053	1142.419286	699.388334	142.277411	1117.791358	677.367785	146.951034	1103.703722	701.333447	110.280429	1127.530907	722.055851	161.343561	1129.797626	825.472006	127.573726	1067.175988	792.602035	175.856590	1128.970867	890.664365	112.340486	1062.389094	890.586474	121.977099	1026.875547	860.578152	190.632333	1341.000658	-36.835095	153.328974	1335.740552	-18.464092	150.906918	1311.426482	-31.333410	187.705556	1316.245552	-50.572385	144.865055	1230.262325	-59.958760	193.546509	1197.696655	 -5.854839	161.492381	1171.158603	-171.322510	171.129635	1130.408175	-145.856799	179.811521	1117.646355	-169.266945	170.198261	1158.191001	-194.586375	243.167325	1146.978648	-286.465624	211.033718	1080.084727	-258.339337	292.401443	1137.517352	-349.114964	226.234020	1077.056187	-373.710029	229.327392	1036.559152	-346.824217	315.983688	1296.817736	279.117355	277.328513	1492.802129	280.390195	159.042945	1536.043175	443.990465	201.354706	1529.231519	 77.678304	138.343823	1554.993681	275.532479	 93.544290	1363.047042	272.044129	278.185101	1032.511117	416.189293	291.769682	1025.137105	146.116652	 98.933029	1067.251764	323.443916	103.264571	1072.588464	203.212048	204.658923	950.702080	464.681939	184.954006	779.303764	470.864540	227.593929	776.558583	475.613325	225.600981	746.156586	475.223042	182.860007	747.637556	471.064826	193.541623	521.981979	440.349934	229.724722	496.091702	349.712834	207.199744	923.478615	 89.424107	240.009782	784.054831	 84.747233	197.672336	779.886280	 86.384416	200.672864	748.741396	 85.999342	243.218667	752.611965	 84.177271	221.020869	512.105378	128.582554	240.096732	493.579070	224.973086	223.572816	447.704148	402.309929	105.156095	422.717232	442.010218	144.607833	413.433212	457.532586	137.066601	383.817487	458.674182	 97.307221	393.216655	443.528210	109.196849	126.630191	427.066653	146.586901	131.573686	347.434782	238.254708	441.959189	176.175248	157.262209	423.712294	110.867909	117.324853	430.726530	127.486502	111.116265	401.335844	126.058514	149.927480	394.307354	108.412095	116.720943	121.370125	143.969692	156.296676	124.384362	218.428815	276.128500	 57.408056	391.337890	215.738276	 51.432362	488.370061	 62.233325	 68.750232	357.671382	155.891414	 61.158499	460.677941	301.625383	 52.648715	164.178797	242.091635	 49.931056	 63.171776	 81.271915	 64.715882	209.147224	169.076840	 64.100134	 99.351300	218.549434	962.008903	367.269870	227.515990	957.141657	189.007351	223.032712	959.575280	278.138610	193.038096	1049.372113	272.240477	284.977391	1028.824111	281.152973	101.098800	1069.920114	263.327982	201.041854	510.387449	395.031384	208.501015	492.813608	176.777820	127.891875	129.101938	387.250717	136.508809	122.877243	181.199254	276.128500	  0.000000	391.337890	301.625383	  0.000000	164.178797	215.738276	  0.000000	488.370061	242.091635	  0.000000	 63.171776	 62.233325	  0.000000	357.671382	 81.271915	  0.000000	209.147224	245.933388	  0.000000	439.853975	271.858509	  0.000000	113.675287	127.891875	  0.000000	387.250717	136.508809	  0.000000	181.199254	159.042945	1467.043175	443.990465	201.354706	1460.231519	 77.678304	142.195798	1226.198647	580.884415	169.205782	1213.979490	-32.906800	144.458643	1098.486807	809.037020	227.100521	1113.531688	-272.402481
256	  2.266667	347.151176	1787.108185	320.477955	157.831151	1757.787982	373.848737	242.203151	1755.437300	180.557436	106.629883	1695.196695	266.618471	220.456430	1857.818159	286.074623	108.139856	1329.923035	513.944611	114.982013	1352.718509	548.626659	113.825069	1329.454831	564.264219	106.840816	1305.739464	529.375211	105.492894	1239.527659	597.762901	178.941280	1212.863219	564.057871	106.258075	1142.410820	699.409872	142.294041	1117.784938	677.389259	146.972036	1103.697207	701.357206	110.296491	1127.521021	722.077424	161.353226	1129.785554	825.495196	127.584258	1067.164840	792.621595	175.864863	1128.958376	890.687929	112.347586	1062.374414	890.605489	121.984419	1026.862511	860.596794	190.689878	1341.045477	-36.802777	153.378171	1335.788831	-18.450260	150.955194	1311.476941	-31.324362	187.757090	1316.295672	-50.557639	144.907037	1230.319477	-59.962147	193.579917	1197.739872	 -5.857872	161.540040	1171.240177	-171.332756	171.223681	1130.492516	-145.849492	179.853784	1117.719609	-169.285765	170.245070	1158.266890	-194.600756	243.220029	1147.067750	-286.474863	211.079461	1080.171022	-258.362890	292.454097	1137.612428	-349.124711	226.286961	1077.162594	-373.732149	229.378046	1036.660834	-346.855469	316.029510	1296.835318	279.147135	277.375376	1492.823208	280.435600	159.067499	1536.042472	444.024611	201.406270	1529.259890	 77.724312	138.369542	1554.997218	275.572292	 93.528938	1363.020876	272.040934	278.195618	1032.507071	416.196178	291.786624	1025.147904	146.123195	 98.948201	1067.256096	323.444852	103.283397	1072.595498	203.213204	204.665034	950.700407	464.683766	184.953237	779.302732	470.862975	227.593352	776.555411	475.610766	225.598876	746.153493	475.220670	182.857979	747.636571	471.062235	193.532677	521.982004	440.348607	229.714279	496.089772	349.708068	207.216711	923.485594	 89.422923	240.019175	784.057621	 84.744583	197.682304	779.890603	 86.383327	200.681827	748.745631	 85.998306	243.226751	752.614546	 84.175023	221.021929	512.107722	128.582015	240.099908	493.582475	224.972819	223.564550	447.704511	402.307449	105.148283	422.716770	442.008266	144.600895	413.433572	457.530954	137.059580	383.818015	458.673024	 97.300283	393.215713	443.526330	109.197141	126.629762	427.066140	146.587277	131.573731	347.434026	238.255807	441.962711	176.174461	157.262825	423.716770	110.869140	117.326107	430.730300	127.488443	111.117463	401.339749	126.060469	149.916872	394.293066	108.440485	116.723340	121.371937	143.969608	156.299039	124.385895	218.427352	276.128718	 57.407591	391.336888	215.738897	 51.431404	488.369422	 62.233553	 68.750026	357.670365	155.891966	 61.157916	460.677188	301.625991	 52.648205	164.177211	242.091611	 49.930940	 63.170905	 81.272785	 64.717482	209.147472	169.077698	 64.100411	 99.350970	218.560970	962.008034	367.270516	227.531767	957.150587	189.007771	223.046369	959.579311	278.139144	193.053460	1049.376642	272.244357	284.991121	1028.827487	281.159687	101.115799	1069.925797	263.329028	201.032112	510.386805	395.028337	208.502039	492.819010	176.777417	127.892209	129.101747	387.250083	136.511189	122.878916	181.198480	276.128718	  0.000000	391.336888	301.625991	  0.000000	164.177211	215.738897	  0.000000	488.369422	242.091611	  0.000000	 63.170905	 62.233553	  0.000000	357.670365	 81.272785	  0.000000	209.147472	245.933807	  0.000000	439.853155	271.858801	  0.000000	113.674058	127.892209	  0.000000	387.250083	136.511189	  0.000000	181.198480	159.067499	1467.042472	444.024611	201.406270	1460.259890	 77.724312	142.217087	1226.195439	580.910386	169.243477	1214.029674	-32.910010	144.468742	1098.475197	809.058395	227.149745	1113.619386	-272.418877
257	  2.275556	347.182390	1787.115669	320.486348	157.868855	1757.801235	373.880878	242.220085	1755.427297	180.579713	106.656501	1695.197155	266.660900	220.483168	1857.820734	286.089177	108.163662	1329.919875	513.974886	115.004809	1352.713781	548.658845	113.847993	1329.449872	564.295478	106.864139	1305.735592	529.404464	105.515502	1239.520849	597.789124	178.964618	1212.859398	564.085458	106.277240	1142.400176	699.432450	142.312782	1117.776706	677.411705	146.994594	1103.688959	701.381578	110.314818	1127.509076	722.099922	161.364560	1129.771977	825.519359	127.597643	1067.151758	792.641609	175.874577	1128.944385	890.712657	112.357727	1062.356769	890.625036	121.995414	1026.847146	860.615894	190.750156	1341.090286	-36.767069	153.428560	1335.838161	-18.436989	151.004845	1311.528722	-31.316362	187.809926	1316.346306	-50.542707	144.949674	1230.377526	-59.964967	193.613359	1197.783856	 -5.859736	161.588259	1171.322465	-171.341618	171.315963	1130.575880	-145.840425	179.895758	1117.792132	-169.303158	170.292418	1158.344956	-194.613197	243.273814	1147.154395	-286.482431	211.124908	1080.255779	-258.384447	292.507744	1137.703926	-349.132655	226.340386	1077.264665	-373.753139	229.427770	1036.759885	-346.884172	316.076669	1296.852213	279.175788	277.423905	1492.840715	280.481880	159.093076	1536.039662	444.058987	201.460227	1529.288489	 77.771742	138.398485	1555.000957	275.612912	 93.506912	1362.990150	272.032433	278.207286	1032.503600	416.203405	291.801657	1025.159914	146.130047	 98.963241	1067.259180	323.447617	103.300684	1072.601348	203.216285	204.673407	950.698550	464.686673	184.956905	779.301350	470.862610	227.597071	776.552469	475.609015	225.601553	746.150557	475.218987	182.860583	747.635329	471.060769	193.527419	521.982077	440.347882	229.706995	496.088222	349.704209	207.232588	923.492662	 89.422735	240.029597	784.060984	 84.742977	197.693461	779.895042	 86.383822	200.692338	748.750098	 85.998753	243.236328	752.617681	 84.173937	221.023253	512.110600	128.582161	240.103881	493.586152	224.973087	223.559024	447.704801	402.305636	105.143524	422.716484	442.006711	144.596815	413.433902	457.529720	137.055357	383.818491	458.672129	 97.296231	393.215109	443.524796	109.198234	126.629583	427.065440	146.588113	131.573927	347.433116	238.257157	441.966342	176.174275	157.263403	423.721875	110.871073	117.327585	430.734713	127.491544	111.118654	401.344401	126.063585	149.905456	394.278551	108.471107	116.726094	121.374270	143.969496	156.301899	124.387430	218.425921	276.129339	 57.407126	391.335856	215.739895	 51.430323	488.368593	 62.234187	 68.750111	357.669071	155.892946	 61.157299	460.676096	301.626706	 52.647649	164.175699	242.091735	 49.930918	 63.169743	 81.273808	 64.718355	209.147605	169.078697	 64.100952	 99.350294	218.573949	962.007191	367.271938	227.546968	957.159962	189.008946	223.060458	959.583576	278.140442	193.068217	1049.381010	272.249339	285.004472	1028.831757	281.166726	101.131963	1069.930264	263.331951	201.025768	510.386183	395.026046	208.503527	492.824617	176.777624	127.893173	129.101755	387.249278	136.513997	122.880850	181.197708	276.129339	  0.000000	391.335856	301.626706	  0.000000	164.175699	215.739895	  0.000000	488.368593	242.091735	  0.000000	 63.169743	 62.234187	  0.000000	357.669071	 81.273808	  0.000000	209.147605	245.934617	  0.000000	439.852225	271.859220	  0.000000	113.672721	127.893173	  0.000000	387.249278	136.513997	  0.000000	181.197708	159.093076	1467.039662	444.058987	201.460227	1460.288489	 77.771742	142.240060	1226.190123	580.937291	169.281517	1214.080691	-32.912352	144.481102	1098.461868	809.080484	227.199361	1113.705087	-272.433439
258	  2.284444	347.212909	1787.127613	320.492277	157.907269	1757.813779	373.911444	242.237087	1755.414529	180.600527	106.685808	1695.192524	266.702635	220.507086	1857.822880	286.099153	108.188944	1329.914059	514.005018	115.028551	1352.706688	548.690533	113.872085	1329.442549	564.326645	106.889022	1305.729210	529.433709	105.539764	1239.511936	597.815914	178.989553	1212.853348	564.113903	106.298329	1142.387599	699.455991	142.333398	1117.766793	677.435105	147.018539	1103.679070	701.406630	110.335124	1127.495389	722.123166	161.377444	1129.757189	825.544441	127.613854	1067.136977	792.662025	175.885202	1128.928865	890.738572	112.370475	1062.336668	890.644959	122.009834	1026.829845	860.635352	190.812170	1341.135064	-36.729147	153.479978	1335.887928	-18.423650	151.055737	1311.581265	-31.308628	187.863633	1316.397092	-50.527379	144.993136	1230.435741	-59.966786	193.647751	1197.828255	 -5.860510	161.636904	1171.403332	-171.349201	171.401769	1130.656380	-145.831726	179.937795	1117.863367	-169.318706	170.340463	1158.424637	-194.623234	243.328635	1147.237955	-286.488232	211.170377	1080.338341	-258.403576	292.562160	1137.791370	-349.138715	226.394083	1077.362303	-373.772312	229.476933	1036.855350	-346.910173	316.124628	1296.867284	279.202413	277.474377	1492.854546	280.528244	159.120300	1536.034722	444.093383	201.516414	1529.317392	 77.819764	138.430737	1555.005134	275.654071	 93.483058	1362.958475	272.021755	278.220314	1032.500534	416.210524	291.814794	1025.172549	146.136992	 98.978100	1067.261213	323.452162	103.316215	1072.606044	203.221252	204.684118	950.696599	464.690475	184.965017	779.299760	470.863221	227.605004	776.549849	475.608114	225.608922	746.147842	475.217833	182.867747	747.633931	471.060435	193.525788	521.982223	440.347667	229.702777	496.087163	349.701450	207.247071	923.499552	 89.423608	240.040865	784.064772	 84.742747	197.705521	779.899433	 86.385981	200.704150	748.754615	 86.000764	243.247192	752.621234	 84.174269	221.024942	512.113924	128.583047	240.108658	493.589882	224.973959	223.556234	447.705125	402.304488	105.141794	422.716464	442.005624	144.595525	413.434342	457.528884	137.053987	383.818985	458.671320	 97.295015	393.214961	443.523714	109.200091	126.629709	427.064569	146.589347	131.574331	347.432190	238.258964	441.969978	176.174764	157.264010	423.727483	110.873776	117.329385	430.739806	127.495752	111.119863	401.349705	126.067872	149.894628	394.265859	108.500792	116.729086	121.377225	143.969327	156.305258	124.388994	218.424561	276.130438	 57.406809	391.334836	215.741311	 51.429197	488.367548	 62.235201	 68.750575	357.667601	155.894354	 61.156729	460.674653	301.627522	 52.647131	164.174269	242.091994	 49.931028	 63.168371	 81.275227	 64.719194	209.147628	169.079780	 64.101758	 99.349365	218.588314	962.006357	367.273917	227.561405	957.169491	189.010810	223.074860	959.587924	278.142363	193.082356	1049.385085	272.255233	285.017554	1028.836541	281.173758	101.147157	1069.933628	263.336707	201.022749	510.385646	395.024559	208.505571	492.830207	176.778503	127.894719	129.102020	387.248380	136.517172	122.883109	181.196944	276.130438	  0.000000	391.334836	301.627522	  0.000000	164.174269	215.741311	  0.000000	488.367548	242.091994	  0.000000	 63.168371	 62.235201	  0.000000	357.667601	 81.275227	  0.000000	209.147628	245.935874	  0.000000	439.851192	271.859758	  0.000000	113.671320	127.894719	  0.000000	387.248380	136.517172	  0.000000	181.196944	159.120300	1467.034722	444.093383	201.516414	1460.317392	 77.819764	142.264659	1226.182642	580.964909	169.320443	1214.131998	-32.913648	144.495649	1098.447083	809.103233	227.249506	1113.788148	-272.445904
